# AST/ASF file generated using VICON BodyLanguage
# -----------------------------------------------
:version 1.10
:name VICON
:units
  mass 1.0
  length 0.45
  angle deg
:documentation
   .ast/.asf automatically generated from VICON data using
   VICON BodyBuilder and BodyLanguage model FoxedUp or BRILLIANT.MOD
:root
   order TX TY TZ RX RY RZ
   axis XYZ
   position 0 0 0  
   orientation 0 0 0 
:bonedata
  begin
     id 1 
     name lhipjoint
     direction 0.653368 -0.678499 0.335782 
     length 2.51848 
     axis 0 0 0  XYZ
  end
  begin
     id 2 
     name lfemur
     direction 0.34202 -0.939693 0  
     length 6.57749  
     axis 0 0 20  XYZ
    dof rx ry rz
    limits (-160.0 20.0)
           (-70.0 70.0)
           (-60.0 70.0)
  end
  begin
     id 3 
     name ltibia
     direction 0.34202 -0.939693 0   
     length 7.94618   
     axis 0 0 20   XYZ
    dof rx
    limits (-10.0 170.0)
  end
  begin
     id 4 
     name lfoot
     direction 0.0811271 -0.222895 0.971461   
     length 2.31339   
     axis -90 7.62852e-016 20   XYZ
    dof rx rz
    limits (-45.0 90.0)
           (-70.0 20.0)
  end
  begin
     id 5 
     name ltoes
     direction 1.53568e-011 -4.21885e-011 1   
     length 1.15935   
     axis -90 7.62852e-016 20   XYZ
    dof rx
    limits (-90.0 20.0)
  end
  begin
     id 6 
     name rhipjoint
     direction -0.640058 -0.688614 0.340788   
     length 2.48149  
     axis 0 0 0  XYZ 
  end
  begin
     id 7 
     name rfemur
     direction -0.34202 -0.939693 0   
     length 6.57875   
     axis 0 0 -20   XYZ
    dof rx ry rz
    limits (-160.0 20.0)
           (-70.0 70.0)
           (-70.0 60.0)
  end
  begin
     id 8 
     name rtibia
     direction -0.34202 -0.939693 0   
     length 7.977   
     axis 0 0 -20   XYZ
    dof rx
    limits (-10.0 170.0)
 end
 begin
     id 9 
     name rfoot
     direction -0.0979793 -0.269196 0.958089   
     length 2.19857  
     axis -90 -7.62852e-016 -20   XYZ
    dof rx rz
    limits (-45.0 90.0)
           (-20.0 70.0)
  end
  begin
     id 10 
     name rtoes
     direction -1.53556e-011 -4.21868e-011 1   
     length 1.09838   
     axis -90 -7.62852e-016 -20   XYZ
    dof rx
    limits (-90.0 20.0)
  end
  begin
     id 11 
     name lowerback
     direction 0.0149039 0.998517 -0.0523597   
     length 2.10809   
     axis 0 0 0   XYZ
    dof rx ry rz
    limits (-20.0 45.0)
           (-30.0 30.0)
           (-30.0 30.0)
  end
  begin
     id 12 
     name upperback
     direction -0.00882659 0.999418 -0.0329624   
     length 2.1102   
     axis 0 0 0   XYZ
    dof rx ry rz
    limits (-20.0 45.0)
           (-30.0 30.0)
           (-30.0 30.0)
  end
  begin
     id 13 
     name thorax
     direction -0.0165585 0.999826 -0.0085833   
     length 2.11039   
     axis 0 0 0   XYZ
    dof rx ry rz
    limits (-20.0 45.0)
           (-30.0 30.0)
           (-30.0 30.0)
  end
  begin
     id 14 
     name lowerneck
     direction -0.0130877 0.999911 0.00260353   
     length 1.73253   
     axis 0 0 0   XYZ
    dof rx ry rz
    limits (-20.0 45.0)
           (-30.0 30.0)
           (-30.0 30.0)
  end
  begin
     id 15 
     name upperneck
     direction -0.0348454 0.928205 -0.370435   
     length 1.66692   
     axis 0 0 0   XYZ
    dof rx ry rz
    limits (-20.0 45.0)
           (-30.0 30.0)
           (-30.0 30.0)
  end
  begin
     id 16
     name head
     direction -0.00807754 0.992494 -0.122026  
     length 1.72765  
     axis 0 0 0   XYZ
    dof rx ry rz
    limits (-20.0 45.0)
           (-30.0 30.0)
           (-30.0 30.0)
  end
  begin
     id 17 
     name lclavicle
     direction 0.987582 0.144023 0.0627671  
     length 3.49235  
     axis 0 0 0   XYZ
    dof ry rz
    limits (-20.0 10.0)
           (0.0 20.0)
  end
  begin
     id 18 
     name lhumerus
     direction 1 -4.48958e-011 -1.45183e-018   
     length 5.41917   
     axis 180 -30 -90   XYZ
    dof rx ry rz
    limits (-60.0 90.0)
           (-90.0 90.0)
           (-90.0 90.0)
  end
  begin
     id 19
     name lradius
     direction 1 -4.48999e-011 5.75106e-027   
     length 2.44373   
     axis 180 -30 -90   XYZ
    dof rx
    limits (-10.0 170.0)
  end
  begin
     id 20
     name lwrist
     direction 1 -4.48987e-011 1.53461e-026   
     length 1.22186   
     axis -1.09697e-014 90 90   XYZ
    dof ry
    limits (-180.0 0.0)
 end
  begin
     id 21 
     name lhand
     direction 1 -4.48881e-011 3.06923e-026   
     length 0.727502   
     axis -1.95843e-014 90 90   XYZ
    dof rx rz
    limits (-90.0 90.0)
           (-45.0 45.0)
  end
  begin
     id 22 
     name lfingers
     direction 1 -4.48907e-011 6.13845e-026   
     length 0.586531   
     axis -3.91686e-014 90 90   XYZ
    dof rx
    limits (0.0 90.0)
  end
  begin
     id 23
     name lthumb
     direction 0.707107 -6.3487e-011 0.707107   
     length 0.842145   
     axis -90 45 2.85299e-015   XYZ
    dof rx rz
    limits (-45.0 45.0)
           (-45.0 45.0)
  end
  begin
     id 24 
     name rclavicle
     direction -0.980998 0.169556 0.0943023   
     length 3.29272  
     axis 0 0 0   XYZ 
    dof ry rz
    limits (-10.0 20.0)
           (-20.0 0.0)
  end
  begin
     id 25 
     name rhumerus
     direction -1 -1.83355e-005 2.45537e-005  
     length 5.58976   
     axis 180 30 90   XYZ
    dof rx ry rz
    limits (-90.0 60.0)
           (-90.0 90.0)
           (-90.0 90.0)
  end
  begin
     id 26 
     name rradius
     direction -1 -4.48967e-011 5.97228e-027   
     length 2.4806   
     axis 180 30 90   XYZ
    dof rx
    limits (-10.0 170.0)
  end
  begin
     id 27 
     name rwrist
     direction -1 -4.48963e-011 1.53461e-026   
     length 1.2403   
     axis -1.09697e-014 -90 -90   XYZ
    dof ry
    limits (-180.0 0.0)
  end
  begin
     id 28
     name rhand
     direction -1 -4.48881e-011 3.06923e-026   
     length 0.816009   
     axis -1.95843e-014 -90 -90   XYZ
    dof rx rz
    limits (-90.0 90.0)
           (-45.0 45.0)
  end
  begin
     id 29
     name rfingers
     direction -1 -4.49018e-011 6.13845e-026   
     length 0.657887   
     axis -3.91686e-014 -90 -90   XYZ
    dof rx
    limits (0.0 90.0)
  end
  begin
     id 30
     name rthumb
     direction -0.707107 -6.34872e-011 0.707107   
     length 0.944599   
     axis -90 -45 -2.85299e-015   XYZ
    dof rx rz
    limits (-45.0 45.0)
           (-45.0 45.0)
  end
:hierarchy
  begin
    root lhipjoint rhipjoint lowerback
    lhipjoint lfemur
    lfemur ltibia
    ltibia lfoot
    lfoot ltoes
    rhipjoint rfemur
    rfemur rtibia
    rtibia rfoot
    rfoot rtoes
    lowerback upperback
    upperback thorax
    thorax lowerneck lclavicle rclavicle
    lowerneck upperneck
    upperneck head
    lclavicle lhumerus
    lhumerus lradius
    lradius lwrist
    lwrist lhand lthumb
    lhand lfingers
    rclavicle rhumerus
    rhumerus rradius
    rradius rwrist
    rwrist rhand rthumb
    rhand rfingers
  end

#!OML:ASF F:\VICON\USERDATA\INSTALL\rory3\rory3.ASF
:FULLY-SPECIFIED
:DEGREES
38
root 0.774112 16.334 -30.4548 10.9707 4.02824 0.712328
lowerback -3.43306 -1.63114 -4.34913
upperback -1.62382 -2.05012 1.37355
thorax 0.45565 -1.00591 3.7742
lowerneck -21.3934 -4.15973 -3.84344
upperneck 32.3955 -5.7359 2.81601
head 15.0922 -2.50409 0.738559
rclavicle 2.64011e-014 1.0138e-014
rhumerus -41.5395 -8.20244 -76.8182
rradius 24.8573
rwrist -7.06031
rhand -1.77665 11.2006
rfingers 7.12502
rthumb 23.8876 -17.3338
lclavicle 2.64011e-014 1.0138e-014
lhumerus -33.5113 19.5202 69.1685
lradius 58.2979
lwrist -8.21267
lhand 0.108967 14.365
lfingers 7.12502
lthumb 25.6947 42.6507
rfemur -40.1345 13.9447 12.368
rtibia 23.6759
rfoot -22.5836 -26.8064
rtoes 9.0279
lfemur 8.91239 -11.1979 -25.0823
ltibia 5.197
lfoot -20.1734 22.5771
ltoes -21.1041
39
root 0.769613 16.3077 -30.3199 11.575 2.89535 0.490161
lowerback -3.42575 -1.29132 -3.45122
upperback -2.75878 -1.63476 1.05406
thorax -0.788856 -0.760946 2.97321
lowerneck -19.5834 -4.07563 -3.98301
upperneck 32.3639 -5.68431 2.96526
head 14.6793 -2.50793 0.866836
rclavicle -1.29334e-014 1.2921e-014
rhumerus -43.4094 -8.02593 -77.0199
rradius 24.9284
rwrist -7.43528
rhand -2.138 11.0693
rfingers 7.12502
rthumb 23.541 -17.51
lclavicle -1.29334e-014 1.2921e-014
lhumerus -35.6937 17.7712 68.6381
lradius 58.7587
lwrist -7.77714
lhand -2.58031 19.271
lfingers 7.12502
lthumb 23.1167 47.9041
rfemur -41.1489 13.6859 13.0093
rtibia 24.6449
rfoot -21.3463 -25.214
rtoes 10.1658
lfemur 11.6529 -10.0494 -25.0173
ltibia -3.18055e-015
lfoot -17.7142 22.838
ltoes -20.811
40
root 0.739988 16.3079 -30.1438 11.6075 3.11362 0.623453
lowerback -4.63681 -1.48397 -3.76734
upperback -2.47139 -1.83461 1.24316
thorax 0.21288 -0.880936 3.30428
lowerneck -18.7394 -4.05165 -4.27968
upperneck 31.5457 -5.51089 2.8934
head 14.1252 -2.49817 0.93378
rclavicle -6.05051e-015 -5.36719e-015
rhumerus -43.0656 -8.12833 -76.7725
rradius 24.5425
rwrist -7.55912
rhand -2.33574 11.1856
rfingers 7.12502
rthumb 23.3513 -17.418
lclavicle -6.05051e-015 -5.36719e-015
lhumerus -35.9839 17.8766 68.9778
lradius 58.111
lwrist -7.01225
lhand -2.70209 19.2866
lfingers 7.12502
lthumb 22.9998 47.9344
rfemur -41.233 14.0927 12.8326
rtibia 25.4984
rfoot -20.3188 -25.7276
rtoes 10.599
lfemur 12.2183 -10.2424 -25.0625
ltibia -3.18055e-014
lfoot -17.1599 22.876
ltoes -21.9115
41
root 0.699897 16.3354 -29.934 10.8499 4.74304 0.780204
lowerback -3.20121 -1.99482 -3.54982
upperback -2.53237 -2.57582 1.16494
thorax -0.600103 -1.23739 3.11468
lowerneck -20.7426 -4.13408 -4.11598
upperneck 32.5369 -5.58519 2.69295
head 15.0096 -2.50407 0.774378
rclavicle -2.42766e-014 1.22253e-014
rhumerus -43.2421 -8.63134 -76.6895
rradius 24.1087
rwrist -7.04329
rhand -2.30338 11.8185
rfingers 7.12502
rthumb 23.3824 -16.7811
lclavicle -2.42766e-014 1.22253e-014
lhumerus -36.5139 18.2551 68.3114
lradius 56.7124
lwrist -7.5286
lhand -4.60316 17.8378
lfingers 7.12502
lthumb 21.1747 46.7014
rfemur -40.0706 14.7225 12.5698
rtibia 26.2515
rfoot -19.923 -27.683
rtoes 10.6905
lfemur 13.6866 -11.7541 -24.9841
ltibia -9.54166e-015
lfoot -16.0362 23.2436
ltoes -24.2772
42
root 0.68509 16.3125 -29.7858 11.0953 3.53635 0.344
lowerback -4.19183 -1.36302 -2.94805
upperback -2.78417 -1.71985 1.0443
thorax -0.394174 -0.816789 2.65955
lowerneck -19.071 -4.29497 -4.06539
upperneck 31.8974 -5.85791 2.63243
head 14.3521 -2.65075 0.722495
rclavicle -1.52381e-014 -7.85199e-015
rhumerus -44.1853 -9.80855 -75.9489
rradius 23.7096
rwrist -5.95076
rhand -2.22749 12.6725
rfingers 7.12502
rthumb 23.4552 -15.9179
lclavicle -1.52381e-014 -7.85199e-015
lhumerus -37.3302 17.6788 68.0494
lradius 56.2298
lwrist -8.69818
lhand -3.38804 17.5049
lfingers 7.12502
lthumb 22.3415 46.2332
rfemur -40.5882 14.7104 13.3909
rtibia 27.007
rfoot -18.5407 -25.8126
rtoes 11.659
lfemur 14.0086 -10.4601 -24.7454
ltibia -1.90833e-014
lfoot -15.4689 23.2405
ltoes -24.9457
43
root 0.654593 16.3076 -29.6107 10.8222 3.58499 -0.0669958
lowerback -4.22663 -1.59461 -2.6326
upperback -2.30511 -2.03783 1.48663
thorax 0.144949 -0.99187 2.9148
lowerneck -21.1889 -4.24773 -4.29441
upperneck 32.3162 -5.4759 2.20725
head 14.9915 -2.54597 0.615551
rclavicle 3.01904e-015 3.57812e-015
rhumerus -43.0257 -9.44107 -75.8716
rradius 23.1973
rwrist -5.63117
rhand -2.45651 12.9041
rfingers 7.12502
rthumb 23.2355 -15.7141
lclavicle 3.01904e-015 3.57812e-015
lhumerus -37.4647 19.5953 67.7495
lradius 54.7117
lwrist -8.90591
lhand -1.314 12.6955
lfingers 7.12502
lthumb 24.3312 41.1711
rfemur -39.9953 14.6687 14.259
rtibia 27.5191
rfoot -18.0248 -25.0491
rtoes 11.3339
lfemur 14.9391 -10.3681 -24.2946
ltibia 3.49861e-014
lfoot -14.8355 23.2609
ltoes -25.4929
44
root 0.62259 16.3111 -29.4471 10.7749 4.07782 -0.420888
lowerback -4.37653 -1.65794 -2.07971
upperback -2.98083 -2.13866 1.5373
thorax -0.476387 -1.03046 2.65996
lowerneck -18.9048 -4.30311 -4.44042
upperneck 32.0295 -5.57331 2.12943
head 14.3578 -2.64931 0.63673
rclavicle 1.07779e-014 3.77691e-015
rhumerus -44.6656 -9.39791 -75.7065
rradius 23.3569
rwrist -6.07769
rhand -3.0088 12.4548
rfingers 7.12502
rthumb 22.7055 -16.2294
lclavicle 1.07779e-014 3.77691e-015
lhumerus -39.3319 18.2224 67.7663
lradius 55.1095
lwrist -8.20185
lhand -3.46492 17.6269
lfingers 7.12502
lthumb 22.2677 46.364
rfemur -39.4902 14.2374 15.07
rtibia 27.9029
rfoot -17.3474 -24.8065
rtoes 9.39431
lfemur 12.894 -10.738 -23.728
ltibia 4.63864
lfoot -16.1294 22.9334
ltoes -26.0885
45
root 0.612791 16.3025 -29.3071 10.8237 3.24906 -1.09063
lowerback -4.20992 -1.50722 -1.27988
upperback -2.93256 -1.96639 1.92576
thorax -0.542264 -0.951743 2.62168
lowerneck -20.2947 -4.15049 -4.80332
upperneck 32.4607 -5.08782 1.93198
head 14.8503 -2.49774 0.678864
rclavicle -3.2551e-015 -1.74931e-014
rhumerus -43.9696 -8.93842 -75.5576
rradius 22.9647
rwrist -5.98858
rhand -3.20041 12.2718
rfingers 7.12502
rthumb 22.5216 -16.4348
lclavicle -3.2551e-015 -1.74931e-014
lhumerus -39.9492 19.2571 67.816
lradius 54.5038
lwrist -8.10446
lhand -4.66865 17.4947
lfingers 7.12502
lthumb 21.1117 46.3653
rfemur -39.3043 13.7155 16.3397
rtibia 28.129
rfoot -16.0876 -23.5516
rtoes 7.04186
lfemur 11.3294 -9.74941 -23.1833
ltibia 8.19522
lfoot -17.2047 22.4996
ltoes -25.6119
46
root 0.581873 16.3162 -29.1188 10.4373 4.3369 -1.68679
lowerback -4.75396 -1.64641 -0.452384
upperback -2.95026 -2.18005 2.01313
thorax -0.272025 -1.07043 2.22233
lowerneck -18.9285 -4.20753 -4.7967
upperneck 32.0623 -5.23976 1.9508
head 14.3713 -2.57516 0.684912
rclavicle -1.23495e-014 1.72943e-014
rhumerus -44.6081 -9.67401 -75.0742
rradius 22.6189
rwrist -5.48826
rhand -3.10742 12.5146
rfingers 7.12502
rthumb 22.6109 -16.1811
lclavicle -1.23495e-014 1.72943e-014
lhumerus -40.5549 18.8563 67.7038
lradius 53.3252
lwrist -8.06401
lhand -4.9837 16.9836
lfingers 7.12502
lthumb 20.8091 45.8877
rfemur -38.0153 13.3175 17.4083
rtibia 28.2416
rfoot -16.8386 -24.0118
rtoes 7.20106
lfemur 10.3083 -10.6472 -22.2634
ltibia 11.6964
lfoot -17.5624 22.5189
ltoes -26.2185
47
root 0.568939 16.3182 -28.9614 10.4069 4.0055 -2.18873
lowerback -5.28709 -1.70597 0.0965547
upperback -2.66204 -2.29514 2.42106
thorax 0.320837 -1.13592 2.30605
lowerneck -19.4465 -4.0726 -5.08092
upperneck 31.9361 -4.77823 1.59723
head 14.4095 -2.45754 0.663975
rclavicle 1.03492e-014 8.34896e-015
rhumerus -43.7262 -9.3159 -74.8745
rradius 22.2267
rwrist -5.35522
rhand -3.12049 12.5097
rfingers 7.12502
rthumb 22.5983 -16.1875
lclavicle 1.03492e-014 8.34896e-015
lhumerus -40.8834 19.996 67.9165
lradius 52.2881
lwrist -7.32526
lhand -5.15314 17.6698
lfingers 7.12502
lthumb 20.6463 46.5917
rfemur -37.4328 12.8037 18.4383
rtibia 28.2626
rfoot -16.3961 -23.271
rtoes 5.75061
lfemur 9.15705 -10.1319 -21.7708
ltibia 14.6535
lfoot -17.5747 22.494
ltoes -26.6319
48
root 0.565798 16.3129 -28.8232 11.0886 2.90773 -2.86017
lowerback -5.61614 -0.97841 1.54304
upperback -3.71545 -1.36996 2.02519
thorax -0.660895 -0.690583 1.14708
lowerneck -17.2557 -4.15627 -4.73021
upperneck 31.8547 -5.15974 1.63686
head 13.8936 -2.59735 0.595884
rclavicle 5.18083e-015 2.5842e-015
rhumerus -45.7795 -10.1855 -74.5942
rradius 22.2872
rwrist -5.1482
rhand -3.31069 12.7898
rfingers 7.12502
rthumb 22.4158 -15.9295
lclavicle 5.18083e-015 2.5842e-015
lhumerus -42.6722 18.3726 67.3192
lradius 51.3939
lwrist -6.12886
lhand -3.94922 19.2941
lfingers 7.12502
lthumb 21.8027 48.086
rfemur -37.8163 11.8892 19.7504
rtibia 28.2676
rfoot -14.9277 -21.4143
rtoes 1.63488
lfemur 7.31035 -9.20321 -21.2753
ltibia 17.5173
lfoot -17.7186 22.6265
ltoes -25.9806
